<?xml version="1.0" encoding="UTF-8" standalone="no"?>
<!-- Created with Inkscape (http://www.inkscape.org/) -->

<svg
   xmlns:dc="http://purl.org/dc/elements/1.1/"
   xmlns:cc="http://creativecommons.org/ns#"
   xmlns:rdf="http://www.w3.org/1999/02/22-rdf-syntax-ns#"
   xmlns:svg="http://www.w3.org/2000/svg"
   xmlns="http://www.w3.org/2000/svg"
   xmlns:sodipodi="http://sodipodi.sourceforge.net/DTD/sodipodi-0.dtd"
   xmlns:inkscape="http://www.inkscape.org/namespaces/inkscape"
   width="210mm"
   height="297mm"
   viewBox="0 0 744.09448819 1052.3622047"
   id="svg2"
   version="1.1"
   inkscape:version="0.91 r13725"
   sodipodi:docname="Iwork.svg"
   inkscape:export-filename="/home/alumne/Escritorio/Iwork.png"
   inkscape:export-xdpi="90"
   inkscape:export-ydpi="90">
  <defs
     id="defs4" />
  <sodipodi:namedview
     id="base"
     pagecolor="#ffffff"
     bordercolor="#666666"
     borderopacity="1.0"
     inkscape:pageopacity="0.0"
     inkscape:pageshadow="2"
     inkscape:zoom="0.49497475"
     inkscape:cx="-68.007756"
     inkscape:cy="433.91273"
     inkscape:document-units="px"
     inkscape:current-layer="layer1"
     showgrid="false"
     inkscape:window-width="1375"
     inkscape:window-height="876"
     inkscape:window-x="65"
     inkscape:window-y="24"
     inkscape:window-maximized="1" />
  <metadata
     id="metadata7">
    <rdf:RDF>
      <cc:Work
         rdf:about="">
        <dc:format>image/svg+xml</dc:format>
        <dc:type
           rdf:resource="http://purl.org/dc/dcmitype/StillImage" />
        <dc:title></dc:title>
      </cc:Work>
    </rdf:RDF>
  </metadata>
  <g
     inkscape:label="Capa 1"
     inkscape:groupmode="layer"
     id="layer1">
    <g
       id="g4462"
       transform="translate(697.00526,212.13203)">
      <path
         id="path4247-8"
         d="M -328.18945,1.8027344 A 310.22629,305.0661 0 0 0 -549.76367,93.816406 l 31.55664,18.789064 A 275.8811,268.70062 0 0 1 -328.18945,38.167969 275.8811,268.70062 0 0 1 -52.308594,306.86914 275.8811,268.70062 0 0 1 -328.18945,575.57031 275.8811,268.70062 0 0 1 -586.60352,399.55859 l -31.3496,14.99414 A 310.22629,305.0661 0 0 0 -328.18945,611.93555 310.22629,305.0661 0 0 0 -17.962891,306.86914 310.22629,305.0661 0 0 0 -328.18945,1.8027344 Z m -273.95899,333.9433556 -32.20703,17.92188 a 310.22629,305.0661 0 0 0 5.02735,23.89648 l 31.85546,-15.23437 a 275.8811,268.70062 0 0 1 -4.67578,-26.58399 z"
         style="fill:#000000;fill-opacity:1;stroke:none;stroke-width:42.79999924;stroke-miterlimit:4;stroke-dasharray:none;stroke-opacity:1"
         inkscape:connector-curvature="0" />
      <g
         transform="matrix(0.9657958,-0.25930383,0.25930383,0.9657958,-714.0726,-69.305816)"
         id="g4392">
        <g
           id="text4374"
           style="font-style:normal;font-weight:normal;font-size:180px;line-height:125%;font-family:sans-serif;letter-spacing:0px;word-spacing:0px;fill:#000000;fill-opacity:1;stroke:none;stroke-width:1px;stroke-linecap:butt;stroke-linejoin:miter;stroke-opacity:1">
          <path
             id="path4409"
             d="m 26.179583,425.16248 17.929687,0 27.597656,110.91796 27.509766,-110.91796 19.951168,0 27.59766,110.91796 27.50977,-110.91796 18.01757,0 -32.95898,131.2207 -22.32422,0 -27.68555,-113.90625 -27.949215,113.90625 -22.324219,0 -32.871093,-131.2207 z"
             inkscape:connector-curvature="0" />
          <path
             id="path4411"
             d="m 269.02138,437.20349 q -19.33594,0 -30.76172,14.41406 -11.33789,14.41407 -11.33789,39.28711 0,24.78516 11.33789,39.19922 11.42578,14.41406 30.76172,14.41406 19.33594,0 30.58594,-14.41406 11.33789,-14.41406 11.33789,-39.19922 0,-24.87304 -11.33789,-39.28711 -11.25,-14.41406 -30.58594,-14.41406 z m 0,-14.41406 q 27.59766,0 44.12109,18.54492 16.52344,18.45703 16.52344,49.57031 0,31.02539 -16.52344,49.57032 -16.52343,18.45703 -44.12109,18.45703 -27.68555,0 -44.29688,-18.45703 -16.52343,-18.45704 -16.52343,-49.57032 0,-31.11328 16.52343,-49.57031 16.61133,-18.54492 44.29688,-18.54492 z"
             inkscape:connector-curvature="0" />
        </g>
        <g
           id="g4386"
           transform="translate(-28.284271,-90.649461)">
          <g
             id="text4378"
             style="font-style:normal;font-weight:normal;font-size:180px;line-height:125%;font-family:sans-serif;letter-spacing:0px;word-spacing:0px;fill:#000000;fill-opacity:1;stroke:none;stroke-width:1px;stroke-linecap:butt;stroke-linejoin:miter;stroke-opacity:1"
             transform="matrix(-0.99886356,-0.04766116,-0.04766116,0.99886356,0,0)">
            <path
               id="path4414"
               d="m -420.24304,564.83551 q 5.71289,1.93359 11.07422,8.26172 5.44922,6.32812 10.89843,17.40234 l 18.01758,35.85938 -19.07226,0 -16.78711,-33.66211 q -6.50391,-13.1836 -12.65625,-17.49024 -6.06446,-4.30664 -16.61133,-4.30664 l -19.33594,0 0,55.45899 -17.7539,0 0,-131.22071 40.07812,0 q 22.5,0 33.57422,9.4043 11.07422,9.4043 11.07422,28.38867 0,12.39258 -5.80078,20.56641 -5.71289,8.17383 -16.69922,11.33789 z m -44.47266,-55.10742 0,46.58203 22.32422,0 q 12.83203,0 19.33594,-5.88867 6.59179,-5.97656 6.59179,-17.49024 0,-11.51367 -6.59179,-17.31445 -6.50391,-5.88867 -19.33594,-5.88867 l -22.32422,0 z"
               inkscape:connector-curvature="0" />
          </g>
          <g
             id="text4382"
             style="font-style:normal;font-weight:normal;font-size:180px;line-height:125%;font-family:sans-serif;letter-spacing:0px;word-spacing:0px;fill:#000000;fill-opacity:1;stroke:none;stroke-width:1px;stroke-linecap:butt;stroke-linejoin:miter;stroke-opacity:1">
            <path
               id="path4417"
               d="m 435.86917,519.10077 17.75391,0 0,55.45898 58.88672,-55.45898 22.85156,0 -65.12695,61.17187 69.78515,70.04883 -23.3789,0 -63.01758,-63.19336 0,63.19336 -17.75391,0 0,-131.2207 z"
               inkscape:connector-curvature="0" />
          </g>
        </g>
      </g>
    </g>
  </g>
</svg>
